HIERARCHY
ROOT Hips
{
	OFFSET 0.00000 0.00000 0.00000
	CHANNELS 6 Xposition Yposition Zposition Zrotation Yrotation Xrotation 
	JOINT LHipJoint
	{
		OFFSET 0 0 0
		CHANNELS 3 Zrotation Yrotation Xrotation
		JOINT LeftUpLeg
		{
			OFFSET 1.37324 -1.83837 0.85674
			CHANNELS 3 Zrotation Yrotation Xrotation
			JOINT LeftLeg
			{
				OFFSET 2.53826 -6.97383 0.00000
				CHANNELS 3 Zrotation Yrotation Xrotation
				JOINT LeftFoot
				{
					OFFSET 2.65296 -7.28895 0.00000
					CHANNELS 3 Zrotation Yrotation Xrotation
					JOINT LeftToeBase
					{
						OFFSET 0.22100 -0.60718 2.29776
						CHANNELS 3 Zrotation Yrotation Xrotation
						End Site
						{
							OFFSET 0.00000 -0.00000 1.19228
						}
					}
				}
			}
		}
	}
	JOINT RHipJoint
	{
		OFFSET 0 0 0
		CHANNELS 3 Zrotation Yrotation Xrotation
		JOINT RightUpLeg
		{
			OFFSET -1.30156 -1.83836 0.85673
			CHANNELS 3 Zrotation Yrotation Xrotation
			JOINT RightLeg
			{
				OFFSET -2.63627 -7.24310 0.00000
				CHANNELS 3 Zrotation Yrotation Xrotation
				JOINT RightFoot
				{
					OFFSET -2.62024 -7.19904 0.00000
					CHANNELS 3 Zrotation Yrotation Xrotation
					JOINT RightToeBase
					{
						OFFSET -0.20765 -0.57052 2.42402
						CHANNELS 3 Zrotation Yrotation Xrotation
						End Site
						{
							OFFSET -0.00000 -0.00000 1.24980
						}
					}
				}
			}
		}
	}
	JOINT LowerBack
	{
		OFFSET 0 0 0
		CHANNELS 3 Zrotation Yrotation Xrotation
		JOINT Spine
		{
			OFFSET 0.05739 2.14162 -0.22815
			CHANNELS 3 Zrotation Yrotation Xrotation
			JOINT Spine1
			{
				OFFSET 0.02798 2.14167 0.08145
				CHANNELS 3 Zrotation Yrotation Xrotation
				JOINT Neck
				{
					OFFSET 0 0 0
					CHANNELS 3 Zrotation Yrotation Xrotation
					JOINT Neck1
					{
						OFFSET -0.07019 1.58903 0.32980
						CHANNELS 3 Zrotation Yrotation Xrotation
						JOINT Head
						{
							OFFSET -0.03205 1.65283 -0.21190
							CHANNELS 3 Zrotation Yrotation Xrotation
							End Site
							{
								OFFSET -0.00726 1.66788 -0.10849
							}
						}
					}
				}
				JOINT LeftShoulder
				{
					OFFSET 0 0 0
					CHANNELS 3 Zrotation Yrotation Xrotation
					JOINT LeftArm
					{
						OFFSET 3.92858 0.97533 -0.07938
						CHANNELS 3 Zrotation Yrotation Xrotation
						JOINT LeftForeArm
						{
							OFFSET 5.58345 -0.00000 -0.00000
							CHANNELS 3 Zrotation Yrotation Xrotation
							JOINT LeftHand
							{
								OFFSET 3.71087 -0.00000 0.00000
								CHANNELS 3 Zrotation Yrotation Xrotation
								JOINT LeftFingerBase
								{
									OFFSET 0 0 0
									CHANNELS 3 Zrotation Yrotation Xrotation
									JOINT LeftHandIndex1
									{
										OFFSET 0.56232 -0.00000 -0.00000
										CHANNELS 3 Zrotation Yrotation Xrotation
										End Site
										{
											OFFSET 0.45336 -0.00000 -0.00000
										}
									}
								}
								JOINT LThumb
								{
									OFFSET 0 0 0
									CHANNELS 3 Zrotation Yrotation Xrotation
									End Site
									{
										OFFSET 0.46028 -0.00000 0.46028
									}
								}
							}
						}
					}
				}
				JOINT RightShoulder
				{
					OFFSET 0 0 0
					CHANNELS 3 Zrotation Yrotation Xrotation
					JOINT RightArm
					{
						OFFSET -3.89897 1.08887 -0.22589
						CHANNELS 3 Zrotation Yrotation Xrotation
						JOINT RightForeArm
						{
							OFFSET -5.20357 -0.00000 -0.00000
							CHANNELS 3 Zrotation Yrotation Xrotation
							JOINT RightHand
							{
								OFFSET -3.64937 -0.00000 0.00000
								CHANNELS 3 Zrotation Yrotation Xrotation
								JOINT RightFingerBase
								{
									OFFSET 0 0 0
									CHANNELS 3 Zrotation Yrotation Xrotation
									JOINT RightHandIndex1
									{
										OFFSET -0.61800 -0.00000 -0.00000
										CHANNELS 3 Zrotation Yrotation Xrotation
										End Site
										{
											OFFSET -0.49824 -0.00000 -0.00000
										}
									}
								}
								JOINT RThumb
								{
									OFFSET 0 0 0
									CHANNELS 3 Zrotation Yrotation Xrotation
									End Site
									{
										OFFSET -0.50585 -0.00000 0.50585
									}
								}
							}
						}
					}
				}
			}
		}
	}
}
MOTION
Frames: 16
Frame Time: .0083333
1.9723 17.8456 16.2927 -4.4003 1.8500 7.7190 0.0000 0.0000 0.0000 -18.0235 -7.3539 -14.7768 3.3376 11.2224 33.0338 0.8552 -12.2332 -17.4150 0.5000 4.5333 12.5821 0.0000 0.0000 0.0000 26.3731 3.6947 -10.1568 -3.0638 -10.7977 31.6005 -1.1469 7.8465 -19.1491 -0.0978 -2.0168 5.5520 4.2825 0.8690 4.7649 2.9716 1.6316 -2.9106 0.5352 0.7048 -5.6770 -3.1484 -0.9971 -21.5537 -1.7819 0.0189 17.0340 -0.0963 -0.4052 8.8882 -0.0000 -0.0000 0.0000 -87.0271 14.7692 26.8822 31.5365 -42.1745 -12.4285 -0.0000 0.0000 -1.3693 25.3406 -5.0373 -2.3811 -7.1250 0.0000 -0.0000 -0.9969 24.4094 0.4959 -0.0000 -0.0000 0.0000 85.5785 -0.4737 31.5367 -56.3303 55.2500 -31.3062 0.0000 0.0000 4.5831 -36.5335 0.3199 -0.2370 7.1250 -0.0000 -0.0000 -7.8092 -29.5386 -2.9691
1.9915 17.8259 16.3995 -4.3890 1.9671 8.0778 0.0000 0.0000 0.0000 -18.0791 -7.3882 -14.7855 3.3476 11.2376 33.0855 0.8960 -12.5313 -17.8322 0.5393 4.7052 13.0695 0.0000 0.0000 0.0000 26.2895 3.5853 -10.2281 -3.0812 -10.8254 31.6933 -1.1968 8.0463 -19.5684 -0.0867 -1.8996 5.2284 4.3994 0.8207 4.7778 2.9731 1.5761 -2.9048 0.4766 0.6729 -5.6770 -3.1318 -0.9758 -21.6057 -1.8558 0.0579 16.9056 -0.1188 -0.3923 8.8529 0.0000 0.0000 0.0000 -86.8800 14.5300 27.7017 32.4416 -42.8964 -13.0404 -0.0000 0.0000 -1.8623 25.2066 -4.8960 -2.3005 -7.1250 0.0000 -0.0000 -1.0940 24.5714 0.5401 0.0000 0.0000 0.0000 85.6023 -0.4738 31.8373 -56.1217 55.1846 -31.1349 0.0000 0.0000 4.3349 -36.4848 0.2709 -0.2004 7.1250 -0.0000 -0.0000 -7.7761 -29.5995 -2.9449
2.0083 17.8071 16.5028 -4.4278 1.8265 8.5638 0.0000 0.0000 0.0000 -18.0867 -7.3491 -14.9611 3.3558 11.2499 33.1273 0.9428 -12.7073 -18.2574 0.5809 4.8806 13.5682 0.0000 0.0000 0.0000 26.2163 3.7261 -10.4011 -3.1055 -10.8639 31.8223 -1.2368 8.2900 -19.9033 -0.0762 -1.7803 4.8989 4.4677 0.8758 4.7260 2.9945 1.6543 -2.9406 0.4543 0.7089 -5.6825 -3.1166 -0.9786 -21.6130 -1.9577 0.0678 16.7611 -0.1543 -0.3957 8.8047 -0.0000 -0.0000 0.0000 -86.7194 14.2578 28.5840 33.3067 -43.5645 -13.6330 -0.0000 0.0000 -2.3315 25.2077 -5.0011 -2.3499 -7.1250 0.0000 -0.0000 -1.0953 24.4554 0.5437 -0.0000 -0.0000 0.0000 85.5974 -0.5109 32.1354 -55.9992 55.1460 -31.0344 0.0000 0.0000 4.1070 -36.3566 0.2105 -0.1549 7.1250 -0.0000 -0.0000 -7.6819 -29.6756 -2.8946
2.0272 17.7840 16.6095 -4.4676 1.8030 8.8680 0.0000 0.0000 0.0000 -18.1194 -7.3907 -14.8862 3.3632 11.2610 33.1651 1.0013 -12.7996 -18.7436 0.6026 4.9691 13.8205 0.0000 0.0000 0.0000 26.1722 3.7692 -10.4021 -3.1378 -10.9148 31.9931 -1.2912 8.4330 -20.3407 -0.0577 -1.5495 4.2623 4.6107 0.9083 4.8279 3.0080 1.7156 -2.9348 0.3812 0.7331 -5.7304 -3.1875 -1.0014 -21.6443 -1.9856 0.0639 16.6685 -0.1527 -0.4039 8.7787 -0.0000 -0.0000 0.0000 -86.5217 14.0609 29.5942 34.3113 -44.3141 -14.3301 -0.0000 0.0000 -2.8728 25.1500 -4.8053 -2.2523 -7.1250 0.0000 -0.0000 -1.1344 24.6740 0.5574 -0.0000 -0.0000 0.0000 85.5896 -0.6314 32.3722 -55.9825 55.1407 -31.0207 0.0000 0.0000 3.8740 -36.3354 0.1181 -0.0869 7.1250 -0.0000 -0.0000 -7.6743 -29.7896 -2.8706
2.0449 17.7611 16.7157 -4.3139 1.8715 9.1880 0.0000 0.0000 0.0000 -18.3463 -7.4278 -14.8116 3.3665 11.2660 33.1822 1.0521 -13.0146 -19.1914 0.6290 5.0750 14.1226 0.0000 0.0000 0.0000 25.9362 3.7982 -10.4451 -3.1853 -10.9891 32.2430 -1.3588 8.5327 -20.8688 -0.0397 -1.2854 3.5345 4.5319 0.8853 4.8904 2.9923 1.6810 -2.9018 0.4111 0.7189 -5.7336 -3.1720 -0.9934 -21.6580 -2.1026 0.0909 16.4932 -0.1910 -0.4003 8.7211 -0.0000 0.0000 0.0000 -86.3090 13.8349 30.5997 35.4200 -45.1097 -15.1101 -0.0000 0.0000 -3.4775 24.9573 -4.7333 -2.1993 -7.1250 0.0000 -0.0000 -1.2774 24.7615 0.6251 -0.0000 0.0000 0.0000 85.4795 -0.6012 32.7941 -55.8352 55.0939 -30.8998 0.0000 0.0000 3.4669 -36.4871 0.0007 -0.0005 7.1250 -0.0000 -0.0000 -7.8043 -29.9326 -2.8932
2.0602 17.7358 16.8200 -4.2529 1.9870 9.4986 0.0000 0.0000 0.0000 -18.4455 -7.4213 -14.7706 3.3695 11.2705 33.1976 1.0980 -13.2749 -19.6061 0.6442 5.1344 14.2924 0.0000 0.0000 0.0000 25.8075 3.7105 -10.5719 -3.2479 -11.0859 32.5700 -1.4209 8.7130 -21.3477 -0.0254 -1.0285 2.8271 4.5237 0.8304 5.0013 2.9906 1.6158 -2.9206 0.4185 0.6854 -5.8187 -3.1081 -0.9563 -21.5964 -2.1755 0.1305 16.3670 -0.2200 -0.3830 8.6672 -0.0000 -0.0000 0.0000 -86.0885 13.6648 31.5395 36.5099 -45.8607 -15.8874 -0.0000 0.0000 -3.9616 24.9051 -4.4075 -2.0435 -7.1250 0.0000 -0.0000 -1.3113 25.1223 0.6307 -0.0000 -0.0000 0.0000 85.3448 -0.6505 33.3203 -55.6196 55.0250 -30.7231 0.0000 0.0000 3.1871 -36.5089 -0.1362 0.1008 7.1250 -0.0000 -0.0000 -7.8347 -30.1011 -2.8729
2.0733 17.7095 16.9271 -4.0751 2.0760 9.8203 0.0000 0.0000 0.0000 -18.6742 -7.4332 -14.7064 3.3679 11.2681 33.1894 1.1480 -13.4906 -20.0316 0.6633 5.2087 14.5046 0.0000 0.0000 0.0000 25.5563 3.6351 -10.7522 -3.3337 -11.2166 33.0139 -1.4956 8.7640 -21.9035 -0.0078 -0.5694 1.5646 4.3616 0.8110 5.0708 2.9768 1.5806 -2.8987 0.4969 0.6739 -5.8394 -3.1072 -0.9646 -21.5992 -2.2559 0.1313 16.2081 -0.2468 -0.3887 8.6136 -0.0000 -0.0000 0.0000 -85.8875 13.3341 32.4779 37.4890 -46.5098 -16.5939 -0.0000 0.0000 -4.4344 24.7083 -4.2529 -1.9543 -7.1250 0.0000 -0.0000 -1.4574 25.2999 0.6950 -0.0000 -0.0000 0.0000 85.1981 -0.6556 33.7513 -55.4435 54.9682 -30.5788 0.0000 0.0000 2.8504 -36.5936 -0.2105 0.1563 7.1250 -0.0000 -0.0000 -7.9084 -30.1921 -2.8830
2.0838 17.6827 17.0330 -3.9706 2.1440 10.1419 0.0000 0.0000 0.0000 -18.8058 -7.3964 -14.6720 3.3692 11.2700 33.1960 1.2009 -13.7232 -20.4761 0.6694 5.2322 14.5721 0.0000 0.0000 0.0000 25.4009 3.6764 -10.9736 -3.4440 -11.3813 33.5771 -1.5622 8.8288 -22.3895 -0.0010 -0.2046 0.5622 4.2623 0.8184 5.2464 2.9628 1.5960 -2.9337 0.5336 0.6826 -5.9787 -3.1521 -1.0024 -21.6206 -2.2518 0.0920 16.1464 -0.2433 -0.4085 8.5964 0.0000 0.0000 0.0000 -85.6414 13.0586 33.4770 38.4890 -47.1488 -17.3232 -0.0000 0.0000 -4.8965 24.4989 -4.0520 -1.8443 -7.1250 0.0000 -0.0000 -1.6129 25.5282 0.7606 0.0000 0.0000 0.0000 85.1207 -0.7563 34.0628 -55.2327 54.8996 -30.4062 0.0000 0.0000 2.7262 -36.6292 -0.2133 0.1586 7.1250 -0.0000 -0.0000 -7.9366 -30.1952 -2.8929
2.0959 17.6557 17.1390 -3.7731 2.2250 10.4646 0.0000 0.0000 0.0000 -19.0531 -7.4306 -14.5936 3.3665 11.2659 33.1819 1.2620 -13.8968 -20.9556 0.6648 5.2144 14.5211 0.0000 0.0000 0.0000 25.1263 3.6093 -11.2959 -3.5821 -11.5825 34.2705 -1.6178 8.9507 -22.7905 -0.0010 0.2004 -0.5507 4.0655 0.7874 5.3807 2.9304 1.5470 -2.9489 0.6128 0.6641 -6.0761 -3.0934 -0.9881 -21.5491 -2.3195 0.0999 16.0015 -0.2738 -0.4055 8.5346 -0.0000 0.0000 0.0000 -85.4337 12.7316 34.3327 39.4282 -47.7274 -18.0150 -0.0000 0.0000 -5.3022 24.3396 -3.9796 -1.7981 -7.1250 0.0000 -0.0000 -1.7326 25.6130 0.8137 -0.0000 0.0000 0.0000 84.9560 -0.8012 34.5084 -54.9705 54.8135 -30.1919 0.0000 0.0000 2.6226 -36.5801 -0.3879 0.2878 7.1250 -0.0000 -0.0000 -7.9150 -30.4109 -2.8437
2.1073 17.6284 17.2438 -3.5937 2.2971 10.7920 0.0000 0.0000 0.0000 -19.2693 -7.3235 -14.5816 3.3616 11.2586 33.1570 1.3170 -14.1812 -21.4102 0.6540 5.1726 14.4015 0.0000 0.0000 0.0000 24.8731 3.5352 -11.7247 -3.7531 -11.8244 35.1137 -1.6660 9.0566 -23.1332 -0.0096 0.6311 -1.7341 3.8753 0.7493 5.5307 2.8955 1.4912 -3.0064 0.6865 0.6411 -6.2271 -2.9854 -0.9478 -21.3398 -2.3993 0.1231 15.8281 -0.3133 -0.3919 8.4395 -0.0000 0.0000 0.0000 -85.2177 12.5178 35.1398 40.4042 -48.3076 -18.7405 -0.0000 0.0000 -5.6724 24.1977 -3.8741 -1.7390 -7.1250 0.0000 -0.0000 -1.8391 25.7333 0.8586 -0.0000 0.0000 0.0000 84.8334 -0.9436 34.9865 -54.6382 54.7031 -29.9205 0.0000 0.0000 2.5024 -36.6205 -0.3729 0.2772 7.1250 -0.0000 -0.0000 -7.9453 -30.3923 -2.8583
2.1196 17.5990 17.3522 -3.3574 2.6220 10.9671 0.0000 0.0000 0.0000 -19.5357 -7.4075 -14.3033 3.3546 11.2481 33.1213 1.3784 -14.4406 -21.8948 0.6337 5.0935 14.1755 0.0000 0.0000 0.0000 24.6104 3.1638 -12.1285 -3.9595 -12.1063 36.1090 -1.7156 9.1602 -23.4807 -0.0302 1.1210 -3.0819 3.7688 0.6633 5.8127 2.8298 1.3785 -2.9597 0.6863 0.5872 -6.3416 -2.9968 -1.0009 -21.4786 -2.3839 0.0564 15.8020 -0.3157 -0.4228 8.4544 0.0000 -0.0000 0.0000 -84.9499 12.0770 36.0807 41.3236 -48.8348 -19.4299 -0.0000 0.0000 -6.0101 23.9823 -3.7120 -1.6497 -7.1250 0.0000 -0.0000 -2.0015 25.9174 0.9259 0.0000 -0.0000 0.0000 84.7264 -1.0003 35.2608 -54.3505 54.6062 -29.6858 0.0000 0.0000 2.5105 -36.6403 -0.4667 0.3471 7.1250 -0.0000 -0.0000 -7.9700 -30.5079 -2.8451
2.1330 17.5709 17.4607 -3.1294 2.6772 11.2687 0.0000 0.0000 0.0000 -19.8453 -7.4374 -14.1580 3.3444 11.2328 33.0691 1.4588 -14.4789 -22.4457 0.5922 4.9269 13.7002 0.0000 0.0000 0.0000 24.2660 2.9826 -12.7448 -4.2094 -12.4340 37.2850 -1.7358 9.4025 -23.6280 -0.0577 1.5506 -4.2652 3.5868 0.6346 5.9870 2.7633 1.3318 -2.9797 0.7220 0.5685 -6.4654 -2.9428 -0.9838 -21.3137 -2.4186 0.0575 15.6245 -0.3342 -0.4183 8.3657 0.0000 0.0000 0.0000 -84.7274 11.7431 36.8728 42.2113 -49.3268 -20.1006 -0.0000 0.0000 -6.2275 23.8363 -3.6276 -1.6012 -7.1250 0.0000 -0.0000 -2.1119 26.0141 0.9723 0.0000 0.0000 0.0000 84.6281 -1.1537 35.6355 -53.9239 54.4605 -29.3384 0.0000 0.0000 2.5614 -36.5881 -0.4934 0.3663 7.1250 -0.0000 -0.0000 -7.9314 -30.5411 -2.8248
2.1425 17.5422 17.5714 -2.9635 2.7265 11.5703 0.0000 0.0000 0.0000 -20.0673 -7.4405 -14.0162 3.3316 11.2134 33.0031 1.5507 -14.5282 -23.0643 0.5366 4.6935 13.0364 0.0000 0.0000 0.0000 23.9905 2.7467 -13.4767 -4.5029 -12.8011 38.6283 -1.7344 9.7142 -23.6329 -0.0946 1.9835 -5.4600 3.4009 0.6223 6.1225 2.7328 1.3029 -2.9377 0.7958 0.5613 -6.5017 -2.8632 -0.9867 -21.3908 -2.4931 0.0448 15.5316 -0.3740 -0.4263 8.3473 0.0000 0.0000 0.0000 -84.5257 11.2868 37.6704 43.0935 -49.7996 -20.7722 -0.0000 0.0000 -6.4592 23.6845 -3.6918 -1.6178 -7.1250 0.0000 -0.0000 -2.2270 25.9487 1.0288 0.0000 0.0000 0.0000 84.4743 -1.1918 35.9807 -53.4550 54.2974 -28.9572 0.0000 0.0000 2.5950 -36.5006 -0.5722 0.4234 7.1250 -0.0000 -0.0000 -7.8700 -30.6384 -2.7840
2.1535 17.5139 17.6829 -2.7632 2.7197 11.8743 0.0000 0.0000 0.0000 -20.3480 -7.4067 -13.8653 3.3142 11.1872 32.9137 1.6168 -14.5885 -23.5062 0.5380 4.6995 13.0534 0.0000 0.0000 0.0000 23.6581 2.6082 -14.2810 -4.8489 -13.2116 40.1656 -1.7179 9.9359 -23.5322 -0.1524 2.5159 -6.9337 3.1911 0.6397 6.2550 2.6867 1.3080 -2.8518 0.8629 0.5722 -6.4893 -2.8944 -1.0091 -21.5553 -2.4417 0.0173 15.4235 -0.3556 -0.4348 8.3384 -0.0000 -0.0000 0.0000 -84.3367 10.7148 38.4743 43.9151 -50.2258 -21.4016 -0.0000 0.0000 -6.6035 23.3285 -3.5183 -1.5160 -7.1250 0.0000 -0.0000 -2.4973 26.1480 1.1422 -0.0000 -0.0000 0.0000 84.2958 -1.1763 36.2754 -52.9429 54.1156 -28.5418 0.0000 0.0000 2.5505 -36.5130 -0.4593 0.3400 7.1250 -0.0000 -0.0000 -7.8690 -30.4993 -2.8101
2.1649 17.4858 17.7952 -2.5832 2.7270 12.1760 0.0000 0.0000 0.0000 -20.6195 -7.4562 -13.6547 3.2924 11.1540 32.8011 1.7060 -14.5105 -24.0601 0.4996 4.5314 12.5767 0.0000 0.0000 0.0000 23.3427 2.5531 -15.1409 -5.2445 -13.6539 41.8685 -1.6816 10.1431 -23.2977 -0.2136 2.9751 -8.2095 3.0054 0.6097 6.3946 2.6318 1.2542 -2.8350 0.9144 0.5517 -6.5541 -2.7851 -0.9780 -21.4416 -2.4670 0.0209 15.2524 -0.3798 -0.4254 8.2606 0.0000 0.0000 0.0000 -84.1475 10.2741 39.1676 44.7268 -50.6340 -22.0274 -0.0000 0.0000 -6.8062 23.2726 -3.4885 -1.4992 -7.1250 0.0000 -0.0000 -2.5398 26.1818 1.1597 0.0000 0.0000 0.0000 84.2379 -1.3851 36.5993 -52.4417 53.9340 -28.1362 0.0000 0.0000 2.7114 -36.4478 -0.4003 0.2956 7.1250 -0.0000 -0.0000 -7.8120 -30.4268 -2.8031
2.1738 17.4593 17.9093 -2.4349 2.7000 12.4609 0.0000 0.0000 0.0000 -20.8317 -7.2823 -13.4959 3.2640 11.1106 32.6536 1.7737 -14.6480 -24.5133 0.4703 4.3985 12.2005 0.0000 0.0000 0.0000 23.0539 2.5801 -16.0703 -5.6943 -14.1254 43.7422 -1.6197 10.2501 -22.8784 -0.2938 3.4852 -9.6328 2.8259 0.6346 6.5801 2.5860 1.2735 -2.7431 0.9626 0.5679 -6.5654 -2.8060 -0.9987 -21.6451 -2.4059 -0.0068 15.1720 -0.3602 -0.4331 8.2676 -0.0000 0.0000 0.0000 -83.9291 9.7039 39.9413 45.5311 -51.0260 -22.6509 -0.0000 0.0000 -6.9734 23.2072 -3.5342 -1.5140 -7.1250 0.0000 -0.0000 -2.5892 26.1339 1.1852 -0.0000 0.0000 0.0000 84.1020 -1.4116 36.8165 -51.8321 53.7082 -27.6442 0.0000 0.0000 2.7115 -36.3508 -0.4016 0.2955 7.1250 -0.0000 -0.0000 -7.7359 -30.4288 -2.7749
